<svg xmlns="http://www.w3.org/2000/svg" width="871.188" height="1014.44" viewBox="0 0 871.188 1014.44">
  <defs>
    <style>
      .cls-1 {
        fill: #fff;
        fill-rule: evenodd;
      }
    </style>
  </defs>
  <path class="cls-1" d="M208.085,252.341L219,265.073l103.673,32.739,72.753,27.282,16.37,16.37L482.728,374.2l96.4-12.732,49.108-20.007,49.109-5.457,25.463-7.275L721,337.826l32.739-40.014,43.651,10.913,27.283-34.558L875.6,308.725l5.456,52.746-1.818,36.376,10.913,20.007-10.913,45.471,3.637,41.833-1.819,58.2,3.638,54.564-29.1-7.275-12.732,23.645-10.913,30.92-3.638,52.746L817.393,750.7l-1.819,47.289-29.1,25.464L753.734,808.9l-18.189,23.645,3.638,23.645-43.652,9.094-10.913,36.377v18.188l-27.282,9.094-9.094,47.289-30.921,38.2-38.2-10.91-32.739-21.829-58.2,1.819-32.739-21.826-12.732-21.826-36.377-43.652-16.369-38.2L369.961,838,344.5,812.54s-13.641-42.742-14.55-47.29-21.826-54.564-21.826-54.564l-12.732-67.3L335.4,677.947l20.007,18.188-1.819-21.826L326.309,641.57l-18.188-32.739-18.189-49.108-38.2-40.014-14.551-45.471L215.361,425.13,200.81,388.753s-4.547-40.014-5.457-45.471,3.638-34.557,3.638-34.557l9.094-21.826V252.341Zm638.409-27.282,20.007,14.55,9.094-27.282ZM824.668,190.5l38.2-14.551,29.1-10.913,23.645,30.92-18.188,16.37L884.689,199.6l-25.463,1.819ZM68.036-9.57L95.318,10.437,93.5,48.632l5.457,32.739-9.094,25.464L49.847,125.023l1.819-40.014L44.391,66.821,46.21,21.35ZM819.211,23.169l20.007,30.92,41.833,27.282,3.638,41.833,5.457,21.826L866.5,143.211l-20.007,12.732-14.551-16.369-7.275-30.92L808.3,94.1l-3.637-23.645-21.826-7.275,18.188-23.645Zm-125.5,896.682-16.369,27.282-16.37,9.094,10.913,18.189,21.826-16.37,1.819,18.188L708.263,943.5l-9.094-23.645h-5.457Zm63.659-67.3,14.551,20.007v25.464l20.007,7.275,10.913-23.645,16.369,10.913,1.819-30.92-3.637-12.731,9.094-23.645-16.37-9.094-14.55,18.188L790.11,847.1,771.922,838Z" transform="translate(-44.406)"/>
</svg>
